<?xml version="1.0" encoding="UTF-8"?> <svg xmlns="http://www.w3.org/2000/svg" viewBox="0 0 64 64" width="512" height="512"><g id="outline"><path d="M2,2V4H18.741L26.6,8.366l-.362,4.886L11.778,20H2v2H13v2H12a1,1,0,0,0-1,1v4a1,1,0,0,0,1,1h4a1,1,0,0,0,1-1V25a1,1,0,0,0-1-1H15V22H25.59l-.618,8.342L8.8,37H2v2h8v2H9a1,1,0,0,0-1,1v4a1,1,0,0,0,1,1h4a1,1,0,0,0,1-1V42a1,1,0,0,0-1-1H12V39H24.331L23.072,56H19a1,1,0,0,0-1,1v4a1,1,0,0,0,1,1H45a1,1,0,0,0,1-1V57a1,1,0,0,0-1-1H40.928L39.669,39H52v2H51a1,1,0,0,0-1,1v4a1,1,0,0,0,1,1h4a1,1,0,0,0,1-1V42a1,1,0,0,0-1-1H54V39h8V37H55.2l-16.17-6.658L38.41,22H49v2H48a1,1,0,0,0-1,1v4a1,1,0,0,0,1,1h4a1,1,0,0,0,1-1V25a1,1,0,0,0-1-1H51V22H62V20H52.222l-14.46-6.748L37.4,8.366,45.259,4H62V2ZM15,28H13V26h2ZM12,45H10V43h2Zm42,0H52V43h2ZM51,28H49V26h2Zm-14.1.645L29.586,22h6.819Zm-.7-9.427L30.172,15h5.714Zm-.5-6.691L31,9h4.442ZM28.929,4h6.142l.223,3H28.706Zm-.418,5.633L33,13H28.262Zm-.468,6.318L33.828,20H27.743Zm-.51,6.886L35.414,30H27ZM22.859,4h4.064l-.16,2.169Zm3.9,29.3L30.177,37H26.484ZM26.336,39h5.687l3.693,4H26.04ZM16.507,20l9.562-4.462L25.738,20ZM14.055,37l10.752-4.427L24.479,37Zm35.89,0H39.521l-.328-4.427ZM44,58v2H20V58Zm-5.077-2H25.077l.814-11H38a.951.951,0,0,0,.107-.016Zm8.57-36H38.262l-.331-4.462ZM37.919,42.437,34.746,39h2.918ZM37.516,37H32.9l-4.616-5h8.862ZM37.237,6.169,37.077,4h4.064Z"></path></g></svg> 