<svg width="120" height="60" viewBox="0 0 120 60" fill="none" xmlns="http://www.w3.org/2000/svg">
<path d="M37.0716 19.164C37.0593 19.0873 37.0219 19.017 36.9652 18.9639C36.9086 18.9109 36.8359 18.8782 36.7586 18.871C36.6336 18.851 33.8886 18.661 33.8886 18.661L31.7956 16.568C31.6076 16.358 31.1896 16.42 31.0316 16.464C31.0116 16.464 30.6136 16.589 29.9646 16.8C29.3326 14.974 28.2146 13.298 26.2466 13.298H26.0786C25.5136 12.568 24.8236 12.231 24.2386 12.231C19.6546 12.251 17.4686 17.969 16.7786 20.891L13.5746 21.874C12.5916 22.187 12.5546 22.21 12.4246 23.147L9.72363 43.98L29.9716 47.77L40.9456 45.404C40.9456 45.384 37.0926 19.364 37.0726 19.166L37.0716 19.164ZM28.8416 17.152C28.3316 17.32 27.7416 17.488 27.1256 17.677V17.3C27.1456 16.358 27.0026 15.42 26.7076 14.524C27.7336 14.682 28.4236 15.834 28.8416 17.152ZM25.4716 14.766C25.8066 15.753 25.9716 16.793 25.9296 17.836V18.024L22.3896 19.124C23.0826 16.537 24.3596 15.258 25.4696 14.777L25.4716 14.766ZM24.1116 13.493C24.3216 13.498 24.5246 13.563 24.6976 13.681C23.2206 14.369 21.6596 16.105 20.9896 19.581L18.1896 20.439C18.9796 17.801 20.8226 13.487 24.1096 13.487L24.1116 13.493Z" fill="#95BF47"/>
<path d="M36.7596 18.8699C36.6346 18.8499 33.8896 18.6599 33.8896 18.6599L31.7966 16.5669C31.7196 16.4869 31.6146 16.4429 31.5036 16.4419L29.9756 47.7659L40.9496 45.3999L37.0736 19.1819C37.0476 19.0219 36.9216 18.8939 36.7606 18.8689L36.7596 18.8699Z" fill="#5E8E3E"/>
<path d="M26.246 24.9421L24.884 28.9621C24.061 28.5621 23.16 28.3491 22.246 28.3321C20.109 28.3321 20.006 29.6721 20.006 30.0081C20.006 31.8381 24.801 32.5421 24.801 36.8561C24.801 40.2481 22.644 42.4261 19.754 42.4261C16.278 42.4261 14.498 40.2691 14.498 40.2691L15.422 37.1891C15.422 37.1891 17.242 38.7591 18.794 38.7591C18.9796 38.7664 19.1646 38.736 19.338 38.6696C19.5114 38.6032 19.6694 38.5023 19.8026 38.373C19.9358 38.2436 20.0413 38.0886 20.1127 37.9172C20.1841 37.7458 20.22 37.5617 20.218 37.3761C20.218 34.9661 16.281 34.8621 16.281 30.9261C16.281 27.6161 18.667 24.3911 23.463 24.3911C25.348 24.4191 26.249 24.9411 26.249 24.9411L26.246 24.9421Z" fill="white"/>
<path d="M50.4735 30.9302C49.6905 30.5102 49.2855 30.1472 49.2855 29.6502C49.2855 29.0202 49.8355 28.6132 50.7285 28.6132C51.3914 28.6276 52.0452 28.7706 52.6535 29.0342L53.3755 26.8402C53.3755 26.8402 52.7135 26.3282 50.7735 26.3282C48.0675 26.3282 46.1875 27.8782 46.1875 30.0562C46.1875 31.2882 47.0595 32.2362 48.2315 32.9122C49.1785 33.4622 49.5115 33.8262 49.5115 34.4002C49.5115 34.9742 49.0455 35.4532 48.1585 35.4532C46.8515 35.4532 45.6185 34.7772 45.6185 34.7772L44.8525 36.9712C44.8525 36.9712 45.9955 37.7372 47.9045 37.7372C50.6845 37.7372 52.6845 36.3692 52.6845 33.8972C52.6995 32.5592 51.6915 31.6272 50.4845 30.9202L50.4735 30.9302ZM61.5675 26.3152C60.1995 26.3152 59.1175 26.9622 58.2895 27.9612L58.2435 27.9462L59.4315 21.7302H56.3365L53.3295 37.5602H56.4265L57.4635 32.1482C57.8695 30.1042 58.9265 28.8402 59.9135 28.8402C60.6035 28.8402 60.8755 29.3062 60.8755 29.9832C60.8755 30.4432 60.8295 30.9002 60.7405 31.3512L59.5685 37.5452H62.6655L63.8835 31.1452C64.0165 30.4822 64.0935 29.8092 64.1085 29.1352C64.0935 27.3912 63.1765 26.3392 61.5685 26.3392L61.5675 26.3152ZM71.0975 26.3152C67.3695 26.3152 64.9035 29.6832 64.9035 33.4152C64.9035 35.8212 66.3915 37.7452 69.1735 37.7452C72.8305 37.7452 75.3075 34.4672 75.3075 30.6452C75.3075 28.4202 74.0005 26.3152 71.1025 26.3152H71.0975ZM69.5775 35.3802C68.5245 35.3802 68.0745 34.4802 68.0745 33.3702C68.0745 31.5962 68.9885 28.6952 70.6765 28.6952C71.7735 28.6952 72.1395 29.6422 72.1395 30.5602C72.1355 32.4652 71.2195 35.3802 69.5795 35.3802H69.5775ZM83.2275 26.3152C81.1275 26.3152 79.9495 28.1432 79.9495 28.1432H79.9035L80.0865 26.4972H77.3435L76.7135 30.6022L74.5635 41.9382H77.6465L78.5045 37.3522H78.5645C78.5645 37.3522 79.1945 37.7582 80.3845 37.7582C84.0225 37.7582 86.3975 34.0302 86.3975 30.2622C86.4125 28.1872 85.4835 26.3242 83.2255 26.3242L83.2275 26.3152ZM80.2655 35.4252C79.7982 35.4345 79.3434 35.2739 78.9855 34.9732L79.4975 32.0712C79.8635 30.1462 80.8655 28.8532 81.9475 28.8532C82.8945 28.8532 83.1795 29.7252 83.1795 30.5532C83.1845 32.5702 81.9995 35.4262 80.2695 35.4262L80.2655 35.4252ZM90.8355 21.8652C90.3615 21.8622 89.9055 22.0502 89.5725 22.3872C89.2395 22.7242 89.0545 23.1812 89.0725 23.6552C89.0725 24.5692 89.6595 25.2052 90.5355 25.2052H90.5815C90.8205 25.2147 91.0589 25.1751 91.2819 25.0889C91.505 25.0027 91.708 24.8717 91.8785 24.7039C92.0489 24.5362 92.1832 24.3353 92.273 24.1136C92.3628 23.892 92.4062 23.6543 92.4005 23.4152C92.4005 22.5152 91.7985 21.8652 90.8505 21.8652H90.8355ZM86.5095 37.5302H89.6065L91.7105 26.5602H88.6025M99.6025 26.5452H97.4395L97.5455 26.0332C97.7285 24.9802 98.3575 24.0332 99.3735 24.0332C99.7102 24.0333 100.045 24.0839 100.367 24.1832L100.965 21.7602C100.965 21.7602 100.415 21.4902 99.2805 21.4902C98.1769 21.4628 97.0999 21.8305 96.2435 22.5272C95.1905 23.4272 94.6935 24.7212 94.4435 26.0302L94.3435 26.5422H92.9005L92.4485 28.8722H93.8915L92.2455 37.5322H95.3535L96.9995 28.8722H99.1355L99.5555 26.5422L99.6025 26.5452ZM107.061 26.5602L104.249 34.1072H104.203L103.437 26.5602H100.173L102.038 36.6322C102.082 36.8044 102.061 36.9871 101.978 37.1442C101.573 37.8912 100.996 38.5302 100.294 39.0092C99.7555 39.3792 99.1685 39.6732 98.5495 39.8812L99.4075 42.5112C100.542 42.2075 101.583 41.6272 102.439 40.8222C103.852 39.4982 105.159 37.4542 106.499 34.6722L110.287 26.5542H107.06L107.061 26.5602Z" fill="white"/>
</svg>
