<svg width="120" height="60" viewBox="0 0 120 60" fill="none" xmlns="http://www.w3.org/2000/svg">
<path d="M17.8401 10.7251H23.8741V38.6551C20.7791 39.2431 18.5061 39.4781 16.0371 39.4781C8.67008 39.4781 4.83008 36.1481 4.83008 29.7611C4.83008 23.6091 8.90508 19.6131 15.2131 19.6131C16.1931 19.6131 16.9371 19.6911 17.8381 19.9261L17.8401 10.7251ZM17.8401 24.7851C17.1351 24.5501 16.5471 24.4721 15.8031 24.4721C12.7471 24.4721 10.9831 26.3521 10.9831 29.6441C10.9831 32.8571 12.6681 34.6201 15.7631 34.6201C16.4583 34.6188 17.1525 34.5667 17.8401 34.4641V24.7851ZM33.4741 20.0451V34.0331C33.4741 38.8531 33.1211 41.1631 32.0741 43.1631C31.0941 45.0831 29.8011 46.2981 27.1371 47.6301L21.5341 44.9651C24.1991 43.7111 25.4911 42.6151 26.3141 40.9291C27.1761 39.2051 27.4511 37.2071 27.4511 31.9561V20.0561L33.4741 20.0451ZM27.4401 10.7601H33.4741V16.9601H27.4401V10.7601ZM37.1181 21.4161C39.7831 20.1621 42.3181 19.6141 45.1121 19.6141C48.2071 19.6141 50.2451 20.4371 51.1461 22.0441C51.6461 22.9441 51.8121 24.1211 51.8121 26.6291V38.9001C49.1081 39.2921 45.6991 39.5661 43.1921 39.5661C38.1381 39.5661 35.8651 37.8021 35.8651 33.8841C35.8651 29.6521 38.8821 27.6841 46.2881 27.0661V25.7341C46.2881 24.6371 45.7381 24.2341 44.2111 24.2341C41.9781 24.2341 39.4711 24.8611 37.1191 26.0761V21.4131L37.1181 21.4161ZM46.5611 31.0161C42.5641 31.4081 41.2611 32.0361 41.2611 33.6021C41.2611 34.7771 42.0061 35.3261 43.6611 35.3261C44.5611 35.3261 45.3851 35.2481 46.5611 35.0521V31.0161ZM54.7611 20.9861C58.3261 20.0461 61.2651 19.6161 64.2431 19.6161C67.3381 19.6161 69.5731 20.3211 70.9051 21.6931C72.1591 22.9861 72.5501 24.3961 72.5501 27.4131V39.2461H66.5161V27.6461C66.5161 25.3341 65.7321 24.4721 63.5761 24.4721C62.7531 24.4721 62.0091 24.5501 60.7941 24.9021V39.2421H54.7501L54.7611 20.9861ZM74.8861 42.5361C77.0021 43.6331 79.1181 44.1421 81.3511 44.1421C85.3081 44.1421 86.9931 42.5361 86.9931 38.6961V38.5781C85.8181 39.1651 84.6431 39.4011 83.0751 39.4011C77.7751 39.4011 74.4151 35.9141 74.4151 30.3891C74.4151 23.5311 79.3921 19.6531 88.2071 19.6531C90.7931 19.6531 93.1841 19.9271 96.0831 20.5151L94.0171 24.8681C92.4101 24.5551 93.8871 24.8261 92.6741 24.7081V25.3351L92.7521 27.8811L92.7921 31.1731C92.8321 31.9961 92.8321 32.8191 92.8721 33.6411V35.2871C92.8721 40.4591 92.4421 42.8871 91.1481 44.8871C89.2681 47.8271 86.0151 49.2871 81.3911 49.2871C79.0411 49.2871 77.0031 48.9341 74.8871 48.1111V42.5471L74.8861 42.5361ZM86.8861 24.5121H86.2591C85.0841 24.4721 83.7131 24.7861 82.7721 25.3741C81.3221 26.1971 80.5781 27.6861 80.5781 29.8021C80.5781 32.8191 82.0781 34.5421 84.7321 34.5421C85.5551 34.5421 86.2321 34.3851 87.0041 34.1501V32.0731C87.0041 31.3681 86.9641 30.5731 86.9641 29.7611L86.9241 26.9791L86.8841 24.9811V24.5111L86.8861 24.5121ZM105.45 19.5361C111.484 19.5361 115.167 23.3361 115.167 29.4891C115.167 35.7891 111.327 39.7551 105.214 39.7551C99.1801 39.7551 95.4571 35.9551 95.4571 29.8421C95.4571 23.4941 99.2971 19.5371 105.449 19.5371L105.45 19.5361ZM105.332 34.8961C107.644 34.8961 109.016 32.9761 109.016 29.6461C109.016 26.3461 107.684 24.3961 105.372 24.3961C102.972 24.3961 101.61 26.3161 101.61 29.6461C101.61 32.9761 102.982 34.8961 105.332 34.8961Z" fill="white"/>
</svg>
